<svg aria-hidden="true" style="position: absolute; width: 0; height: 0; overflow: hidden;" version="1.1" xmlns="http://www.w3.org/2000/svg" xmlns:xlink="http://www.w3.org/1999/xlink">
<defs>
<symbol id="icon-Logo5" viewBox="0 0 57 32">
<path d="M28.661 15.122c-0.192-0.276-0.307-0.618-0.307-0.987 0-0.039 0.001-0.077 0.004-0.115l-0 0.005v-1.59c0-0.488 0.101-0.859 0.302-1.112s0.548-0.38 1.039-0.379c0.461 0 0.789 0.108 0.983 0.324 0.211 0.275 0.314 0.612 0.29 0.951v0.373h-0.825v-0.379c0-0.015 0.001-0.032 0.001-0.049 0-0.113-0.009-0.225-0.026-0.333l0.002 0.012c-0.013-0.088-0.056-0.164-0.118-0.22l-0-0c-0.073-0.054-0.165-0.087-0.264-0.087-0.012 0-0.025 0.001-0.037 0.001l0.002-0c-0.010-0.001-0.022-0.001-0.035-0.001-0.105 0-0.203 0.034-0.281 0.093l0.001-0.001c-0.069 0.062-0.118 0.146-0.137 0.24l-0 0.003c-0.023 0.13-0.034 0.261-0.032 0.393v1.931c-0.013 0.186 0.023 0.372 0.106 0.542 0.042 0.058 0.098 0.103 0.163 0.131l0.003 0.001c0.048 0.021 0.104 0.033 0.163 0.033 0.017 0 0.035-0.001 0.052-0.003l-0.002 0c0.010 0.001 0.022 0.001 0.034 0.001 0.098 0 0.188-0.033 0.259-0.090l-0.001 0.001c0.064-0.060 0.109-0.141 0.122-0.232l0-0.002c0.020-0.128 0.028-0.258 0.026-0.387v-0.392h0.825v0.357c0.002 0.030 0.003 0.064 0.003 0.099 0 0.338-0.108 0.651-0.292 0.907l0.003-0.005c-0.189 0.236-0.513 0.354-0.988 0.354s-0.834-0.126-1.038-0.388zM32.099 15.138c-0.209-0.248-0.313-0.609-0.313-1.086v-1.674c0-0.473 0.105-0.83 0.313-1.073s0.557-0.364 1.046-0.363c0.485 0 0.832 0.121 1.041 0.363 0.208 0.243 0.315 0.6 0.315 1.073v1.674c0 0.473-0.107 0.835-0.318 1.084s-0.557 0.373-1.037 0.373c-0.48 0-0.836-0.126-1.046-0.372zM33.53 14.737c0.075-0.155 0.109-0.325 0.099-0.495v-2.049c0.001-0.016 0.002-0.036 0.002-0.055 0-0.157-0.037-0.305-0.102-0.436l0.003 0.006c-0.043-0.059-0.1-0.104-0.166-0.132l-0.003-0.001c-0.048-0.021-0.103-0.033-0.162-0.033-0.020 0-0.039 0.001-0.058 0.004l0.002-0c-0.017-0.002-0.036-0.004-0.056-0.004-0.059 0-0.115 0.012-0.166 0.034l0.003-0.001c-0.069 0.029-0.126 0.075-0.169 0.132l-0.001 0.001c-0.075 0.151-0.109 0.318-0.099 0.485v2.058c-0.011 0.171 0.023 0.34 0.099 0.495 0.048 0.052 0.106 0.093 0.171 0.121l0.003 0.001c0.063 0.028 0.136 0.044 0.212 0.044s0.15-0.016 0.216-0.045l-0.003 0.001c0.068-0.030 0.126-0.071 0.174-0.122l0-0v-0.010zM35.493 10.992h0.889l0.668 3.088 0.684-3.088h0.865l0.087 4.457h-0.638l-0.069-3.097-0.66 3.097h-0.513l-0.684-3.108-0.063 3.108h-0.646l0.080-4.456zM39.683 10.992h1.385c0.798 0 1.197 0.422 1.197 1.266 0 0.808-0.42 1.211-1.26 1.211h-0.472v1.98h-0.854l0.005-4.456zM40.866 12.897c0.084 0.011 0.17 0.003 0.251-0.021s0.156-0.065 0.219-0.119c0.098-0.151 0.141-0.327 0.123-0.503 0.001-0.015 0.001-0.032 0.001-0.050 0-0.126-0.015-0.248-0.044-0.365l0.002 0.010c-0.013-0.047-0.035-0.088-0.063-0.123l0.001 0.001c-0.030-0.036-0.065-0.066-0.106-0.089l-0.002-0.001c-0.099-0.046-0.214-0.072-0.336-0.072-0.016 0-0.032 0-0.048 0.001l0.002-0h-0.332v1.331h0.332zM43.497 10.992h0.918l0.942 4.457h-0.797l-0.186-1.028h-0.819l-0.192 1.028h-0.808l0.942-4.456zM44.281 13.905l-0.32-1.871-0.319 1.871h0.639zM46.117 10.992h0.598l1.145 2.542v-2.542h0.709v4.456h-0.569l-1.152-2.654v2.654h-0.733l0.002-4.456zM50.231 13.749l-0.953-2.751h0.802l0.581 1.767 0.545-1.767h0.784l-0.94 2.751v1.699h-0.82v-1.699zM29.981 17.397v0.233h-0.698v1.811h-0.292v-1.811h-0.701v-0.233h1.691zM32.167 19.441h-0.226c-0.002 0-0.004 0-0.006 0-0.022 0-0.042-0.007-0.058-0.020l0 0c-0.017-0.012-0.029-0.028-0.037-0.046l-0-0.001-0.202-0.485h-0.967l-0.202 0.485c-0.006 0.021-0.017 0.040-0.031 0.055l0-0c-0.016 0.012-0.036 0.019-0.058 0.019-0.002 0-0.004-0-0.005-0h-0.225l0.855-2.043h0.297l0.865 2.035zM30.752 18.682h0.807l-0.341-0.832c-0.022-0.051-0.044-0.115-0.061-0.181l-0.003-0.011-0.032 0.108-0.031 0.085-0.339 0.83zM33.641 19.24c0.053 0.003 0.107 0.003 0.16 0 0.046-0.005 0.092-0.013 0.137-0.025 0.049-0.011 0.090-0.024 0.13-0.040l-0.007 0.002c0.037-0.014 0.075-0.032 0.115-0.050v-0.459h-0.342c-0.001 0-0.003 0-0.004 0-0.016 0-0.031-0.006-0.043-0.016l0 0c-0.010-0.009-0.017-0.021-0.017-0.036 0-0 0-0.001 0-0.001v0-0.157h0.663v0.783c-0.103 0.070-0.223 0.127-0.352 0.164l-0.009 0.002c-0.060 0.018-0.133 0.033-0.207 0.042l-0.007 0.001c-0.074 0.008-0.16 0.013-0.246 0.013-0.001 0-0.002 0-0.003 0h0c-0.003 0-0.006 0-0.010 0-0.151 0-0.296-0.028-0.429-0.079l0.008 0.003c-0.132-0.051-0.246-0.123-0.342-0.214l0.001 0c-0.092-0.090-0.167-0.198-0.218-0.317l-0.002-0.006c-0.050-0.121-0.078-0.262-0.078-0.409 0-0.005 0-0.010 0-0.015v0.001c-0-0.004-0-0.009-0-0.014 0-0.149 0.028-0.291 0.080-0.421l-0.003 0.008c0.049-0.122 0.124-0.231 0.22-0.324 0.098-0.092 0.214-0.164 0.342-0.212 0.147-0.052 0.302-0.078 0.458-0.076 0.080 0 0.159 0.006 0.238 0.018 0.069 0.011 0.138 0.028 0.203 0.052 0.060 0.021 0.117 0.048 0.171 0.081 0.053 0.032 0.102 0.068 0.149 0.107l-0.083 0.126c-0.007 0.012-0.016 0.021-0.027 0.028l-0 0c-0.011 0.007-0.025 0.010-0.039 0.011h-0c-0.020-0.001-0.038-0.006-0.053-0.016l0 0c-0.034-0.017-0.061-0.033-0.088-0.050l0.004 0.002c-0.032-0.020-0.070-0.038-0.11-0.054l-0.005-0.002c-0.044-0.017-0.097-0.033-0.151-0.044l-0.006-0.001c-0.062-0.011-0.133-0.018-0.205-0.018-0.004 0-0.008 0-0.012 0h0.001c-0.003-0-0.007-0-0.010-0-0.115 0-0.224 0.021-0.326 0.059l0.006-0.002c-0.098 0.038-0.182 0.092-0.251 0.162l0-0c-0.071 0.074-0.125 0.16-0.159 0.254-0.036 0.102-0.057 0.219-0.057 0.341s0.021 0.239 0.059 0.348l-0.002-0.007c0.037 0.096 0.095 0.184 0.171 0.258 0.070 0.070 0.155 0.125 0.25 0.162 0.109 0.035 0.224 0.049 0.339 0.041zM36.365 19.207h0.933v0.233h-1.219v-2.044h0.292l-0.007 1.811zM38.27 19.44h-0.293v-2.043h0.293v2.044zM39.357 17.406c0.017 0.010 0.032 0.022 0.044 0.037l1.25 1.541c-0.001-0.011-0.001-0.024-0.001-0.037s0-0.026 0.001-0.038l-0 0.002v-1.523h0.255v2.052h-0.147c-0.003 0-0.007 0-0.010 0-0.019 0-0.038-0.004-0.054-0.012l0.001 0c-0.018-0.010-0.033-0.023-0.046-0.039l-0-0-1.248-1.539v1.589h-0.244v-2.043h0.152c0.017 0 0.033 0.003 0.048 0.010zM43.057 17.397v0.225h-1.036v0.675h0.839v0.217h-0.839v0.698h1.036v0.225h-1.337v-2.039h1.337zM12.428 4.775l12.979 3.489v12.225l-12.978-3.486v-12.227zM11.597 3.733v13.862l14.642 3.937v-13.861l-14.642-3.938z"></path>
<path d="M19.443 27.968l-14.643-3.94v-13.861l14.643 3.939v13.863z"></path>
<path d="M11.839 4.619l12.809 3.445-5.447 5.158-12.811-3.446 5.449-5.157zM11.596 3.733l-6.796 6.434 14.643 3.939 6.795-6.434-14.642-3.939zM20.268 27.188l5.97-5.653-5.97-1.607v7.26z"></path>
</symbol>
<symbol id="icon-Logo4" viewBox="0 0 57 32">
<path d="M14.66 24.148c0.123 0.152 0.188 0.343 0.185 0.539 0.001 0.012 0.001 0.027 0.001 0.041 0 0.254-0.111 0.482-0.287 0.639l-0.001 0.001c-0.238 0.181-0.533 0.269-0.831 0.249h-1.461v-3.416h1.431c0.024-0.002 0.052-0.003 0.081-0.003 0.267 0 0.515 0.086 0.716 0.232l-0.004-0.002c0.171 0.144 0.278 0.358 0.278 0.597 0 0.015-0 0.029-0.001 0.043l0-0.002c0.009 0.188-0.051 0.373-0.166 0.523-0.111 0.135-0.265 0.229-0.436 0.267 0.194 0.036 0.369 0.139 0.494 0.292zM12.947 23.633h0.612c0.139 0.011 0.277-0.030 0.389-0.114 0.082-0.075 0.133-0.181 0.133-0.3 0-0.012-0.001-0.024-0.002-0.035l0 0.002c0.001-0.009 0.001-0.019 0.001-0.029 0-0.12-0.050-0.228-0.13-0.304l-0-0c-0.097-0.073-0.22-0.117-0.353-0.117-0.017 0-0.033 0.001-0.050 0.002l0.002-0h-0.602v0.896zM14.007 24.942c0.089-0.078 0.145-0.192 0.145-0.32 0-0.009-0-0.019-0.001-0.028l0 0.001c0-0.007 0.001-0.016 0.001-0.025 0-0.13-0.057-0.246-0.148-0.326l-0.001-0c-0.104-0.078-0.234-0.125-0.376-0.125-0.014 0-0.028 0-0.042 0.001l0.002-0h-0.641v0.939h0.65c0.146 0.009 0.291-0.033 0.411-0.118zM17.585 25.617l-0.796-1.335h-0.299v1.335h-0.685v-3.416h1.296c0.027-0.002 0.058-0.003 0.089-0.003 0.31 0 0.595 0.111 0.816 0.295l-0.002-0.002c0.192 0.197 0.311 0.466 0.311 0.763 0 0.245-0.081 0.471-0.217 0.653l0.002-0.003c-0.16 0.184-0.378 0.307-0.618 0.347l0.848 1.365h-0.745zM16.49 23.816h0.56c0.389 0 0.583-0.172 0.583-0.517 0.001-0.009 0.001-0.019 0.001-0.029 0-0.138-0.055-0.263-0.144-0.355l0 0c-0.104-0.088-0.24-0.141-0.388-0.141-0.018 0-0.037 0.001-0.055 0.002l0.002-0h-0.567l0.007 1.040zM21.328 24.929h-1.364l-0.241 0.688h-0.718l1.253-3.378h0.776l1.248 3.378h-0.718l-0.236-0.687zM21.146 24.412l-0.499-1.442-0.499 1.442h0.997zM26.014 25.617h-0.681l-1.524-2.323v2.323h-0.678v-3.416h0.678l1.524 2.336v-2.336h0.68v3.416zM29.893 24.799c-0.143 0.259-0.353 0.465-0.607 0.599l-0.008 0.004c-0.296 0.15-0.624 0.224-0.956 0.215h-1.211v-3.416h1.211c0.016-0 0.034-0.001 0.053-0.001 0.329 0 0.64 0.078 0.915 0.217l-0.012-0.005c0.26 0.131 0.475 0.339 0.615 0.596 0.134 0.261 0.213 0.569 0.213 0.896s-0.079 0.635-0.218 0.907l0.005-0.011zM29.115 24.717c0.187-0.218 0.301-0.503 0.301-0.815s-0.114-0.597-0.302-0.817l0.001 0.002c-0.206-0.182-0.479-0.293-0.778-0.293-0.026 0-0.051 0.001-0.076 0.002l0.003-0h-0.472v2.211h0.472c0.022 0.001 0.048 0.002 0.074 0.002 0.298 0 0.571-0.111 0.778-0.294l-0.001 0.001zM21.754 3.2s8.774 3.326 8.587 8.139v8.14s-8.767-3.328-8.585-8.14l-0.003-8.139zM38.158 17.573c1.571-1.098 3.469-1.837 5.522-2.058l0.053-0.005v-2.548c-2.346 0.925-4.259 2.528-5.547 4.564l-0.028 0.047z"></path>
<path d="M37.163 18.341c1.37-2.731 3.676-4.824 6.488-5.885l0.082-0.027v-7.342s-12.496 4.738-12.231 11.591v11.59s0.557-0.212 1.433-0.609c0-0.371 0-0.744 0.040-1.12 0.274-3.294 1.835-6.178 4.172-8.183l0.016-0.014z"></path>
<path d="M35.975 22.646c0.066-0.804 0.212-1.599 0.437-2.373-1.596 1.881-2.587 4.319-2.646 6.988l-0 0.013c1.018-0.489 1.805-0.913 2.574-1.364l-0.171 0.093c-0.149-0.711-0.235-1.529-0.235-2.366 0-0.348 0.015-0.693 0.044-1.034l-0.003 0.044zM36.472 22.688c-0.024 0.281-0.038 0.609-0.038 0.94 0 0.742 0.070 1.468 0.205 2.171l-0.011-0.072c3.413-2.051 7.25-5.22 7.102-9.050v-0.334c-2.543 0.294-4.784 1.401-6.5 3.050l0.004-0.004c-0.392 0.967-0.663 2.087-0.758 3.257l-0.003 0.041z"></path>
</symbol>
<symbol id="icon-Logo3" viewBox="0 0 57 32">
<path d="M13.548 11.643h-0.001c-1.206 0-2.185 0.954-2.185 2.129v0.002c0 1.175 0.978 2.129 2.185 2.129h0.002c1.206 0 2.185-0.954 2.185-2.129v-0.002c0-1.175-0.978-2.129-2.185-2.129zM29.673 10.963c-0.004-1.634-0.671-3.199-1.856-4.354-1.184-1.155-2.79-1.805-4.466-1.809-1.676 0.003-3.283 0.653-4.469 1.808s-1.853 2.721-1.856 4.355v9.005s12.645-1.372 12.647-9.004v-0.001zM6.933 22.924c0.006 1.189 0.499 2.261 1.291 3.028l0.001 0.001c0.803 0.779 1.899 1.259 3.108 1.26h0c1.208-0.001 2.304-0.481 3.108-1.26l-0.001 0.001c0.793-0.768 1.286-1.84 1.293-3.027v-6.268s-8.799 0.957-8.799 6.266zM11.333 24.046c-0.001 0-0.001 0-0.002 0-0.237 0-0.458-0.070-0.643-0.192l0.004 0.003c-0.188-0.122-0.334-0.294-0.422-0.497l-0.003-0.007c-0.055-0.127-0.087-0.274-0.087-0.429 0-0.078 0.008-0.154 0.024-0.227l-0.001 0.007c0.048-0.227 0.159-0.423 0.314-0.575l0-0c0.158-0.153 0.359-0.262 0.583-0.306l0.007-0.001c0.223-0.044 0.455-0.021 0.666 0.064s0.39 0.229 0.517 0.413c0.122 0.175 0.194 0.391 0.194 0.625 0 0.155-0.032 0.303-0.090 0.437l0.003-0.007c-0.058 0.137-0.142 0.261-0.249 0.366s-0.235 0.188-0.374 0.244c-0.131 0.054-0.282 0.086-0.442 0.086-0 0-0 0-0.001 0h0v-0.004zM20.315 23.35h-0.9v0.93h-0.469v-2.274h1.482v0.38h-1.012v0.587h0.9v0.379zM22.567 23.194c0 0.224-0.039 0.42-0.119 0.589s-0.193 0.299-0.34 0.39c-0.139 0.087-0.308 0.138-0.489 0.138-0.006 0-0.013-0-0.019-0h0.001c-0.188 0-0.357-0.045-0.505-0.136-0.149-0.094-0.267-0.225-0.341-0.382l-0.002-0.006c-0.078-0.165-0.124-0.358-0.124-0.563 0-0.007 0-0.013 0-0.020v0.001-0.113c0-0.224 0.040-0.421 0.121-0.591 0.081-0.171 0.195-0.301 0.342-0.392 0.148-0.092 0.317-0.138 0.507-0.138s0.357 0.046 0.505 0.138c0.148 0.091 0.262 0.221 0.342 0.392 0.082 0.17 0.122 0.366 0.122 0.589v0.101zM22.093 23.091c0-0.238-0.043-0.42-0.128-0.544-0.076-0.113-0.203-0.186-0.348-0.186-0.006 0-0.013 0-0.019 0l0.001-0c-0.005-0-0.012-0-0.018-0-0.144 0-0.271 0.073-0.346 0.183l-0.001 0.001c-0.085 0.122-0.129 0.301-0.13 0.537v0.111c0 0.233 0.043 0.413 0.128 0.541s0.208 0.192 0.369 0.192c0.006 0 0.012 0 0.018 0 0.143 0 0.269-0.073 0.343-0.183l0.001-0.001c0.084-0.124 0.127-0.304 0.128-0.541v-0.111zM24.087 23.683c0-0.004 0-0.009 0-0.013 0-0.077-0.037-0.145-0.093-0.189l-0.001-0c-0.062-0.048-0.175-0.098-0.338-0.15-0.15-0.047-0.278-0.1-0.4-0.163l0.014 0.006c-0.258-0.14-0.387-0.327-0.387-0.564 0-0.123 0.034-0.233 0.103-0.329 0.070-0.097 0.17-0.172 0.299-0.227 0.13-0.054 0.276-0.081 0.437-0.081 0.163 0 0.307 0.030 0.435 0.089s0.225 0.141 0.295 0.249c0.071 0.107 0.107 0.229 0.107 0.366h-0.469c0-0.105-0.033-0.185-0.098-0.242-0.066-0.059-0.158-0.088-0.277-0.088-0.115 0-0.203 0.025-0.267 0.074-0.058 0.042-0.096 0.109-0.096 0.186 0 0.002 0 0.004 0 0.006v-0c0 0.074 0.037 0.135 0.111 0.186s0.185 0.097 0.33 0.141c0.267 0.080 0.461 0.18 0.583 0.299s0.182 0.267 0.182 0.443c0 0.197-0.075 0.352-0.223 0.464s-0.349 0.167-0.602 0.167c-0.175 0-0.334-0.032-0.478-0.095-0.135-0.058-0.247-0.148-0.328-0.262l-0.002-0.002c-0.071-0.105-0.113-0.235-0.113-0.374 0-0.005 0-0.009 0-0.014v0.001h0.47c0 0.251 0.15 0.377 0.45 0.377 0.112 0 0.199-0.022 0.261-0.067 0.057-0.041 0.094-0.107 0.094-0.182 0-0.003-0-0.006-0-0.009v0zM26.589 22.385h-0.697v1.895h-0.469v-1.895h-0.687v-0.38h1.853v0.38zM28.227 23.294h-0.9v0.609h1.056v0.377h-1.525v-2.274h1.522v0.38h-1.053v0.542h0.9v0.367zM29.5 23.447h-0.373v0.833h-0.469v-2.274h0.846c0.269 0 0.476 0.060 0.622 0.18s0.219 0.289 0.219 0.508c0 0.155-0.034 0.285-0.101 0.389-0.075 0.109-0.179 0.194-0.301 0.245l-0.005 0.002 0.492 0.93v0.022h-0.503l-0.427-0.833zM29.127 23.067h0.378c0.117 0 0.209-0.030 0.273-0.089 0.060-0.059 0.098-0.141 0.098-0.232 0-0.006-0-0.012-0-0.018l0 0.001c0-0.107-0.030-0.192-0.092-0.253-0.060-0.062-0.154-0.092-0.279-0.092h-0.377v0.683zM31.967 23.478v0.802h-0.469v-2.274h0.887c0.171 0 0.321 0.031 0.45 0.094 0.13 0.062 0.23 0.151 0.3 0.267s0.105 0.245 0.105 0.393c0 0.223-0.077 0.399-0.23 0.528-0.152 0.128-0.363 0.192-0.633 0.192h-0.411zM31.967 23.099h0.419c0.124 0 0.219-0.029 0.283-0.088 0.066-0.058 0.099-0.141 0.099-0.25 0-0.005 0-0.011 0-0.016 0-0.098-0.038-0.187-0.099-0.254l0 0c-0.066-0.069-0.156-0.104-0.272-0.107h-0.429v0.715zM34.933 23.294h-0.9v0.609h1.056v0.377h-1.525v-2.274h1.522v0.38h-1.053v0.542h0.9v0.367zM37.108 22.385h-0.698v1.895h-0.469v-1.895h-0.687v-0.38h1.853v0.38zM38.746 23.294h-0.9v0.609h1.056v0.377h-1.524v-2.274h1.522v0.38h-1.053v0.542h0.9v0.367zM40.019 23.447h-0.373v0.833h-0.469v-2.274h0.845c0.269 0 0.476 0.060 0.622 0.18s0.219 0.289 0.219 0.508c0 0.155-0.034 0.285-0.101 0.389-0.075 0.109-0.179 0.194-0.3 0.245l-0.005 0.002 0.492 0.93v0.022h-0.503l-0.427-0.833zM39.646 23.067h0.378c0.118 0 0.209-0.030 0.274-0.089 0.060-0.059 0.097-0.141 0.097-0.232 0-0.006-0-0.012-0-0.018l0 0.001c0-0.107-0.031-0.192-0.092-0.253-0.060-0.062-0.154-0.092-0.28-0.092h-0.377v0.683zM42.401 23.683c0-0.004 0-0.008 0-0.013 0-0.077-0.037-0.146-0.094-0.189l-0.001-0c-0.063-0.048-0.175-0.098-0.338-0.15-0.15-0.047-0.278-0.1-0.4-0.163l0.014 0.006c-0.258-0.14-0.387-0.327-0.387-0.564 0-0.123 0.034-0.233 0.103-0.329s0.169-0.172 0.299-0.227c0.13-0.054 0.276-0.081 0.437-0.081 0.163 0 0.307 0.030 0.434 0.089s0.226 0.141 0.295 0.249c0.071 0.107 0.107 0.229 0.107 0.366h-0.469c0-0.105-0.033-0.185-0.098-0.242-0.066-0.059-0.158-0.088-0.277-0.088-0.115 0-0.204 0.025-0.267 0.074-0.058 0.042-0.096 0.109-0.096 0.186 0 0.002 0 0.004 0 0.006v-0c0 0.074 0.037 0.135 0.111 0.186s0.185 0.097 0.33 0.141c0.267 0.080 0.461 0.18 0.583 0.299s0.182 0.267 0.182 0.443c0 0.197-0.075 0.352-0.223 0.464s-0.349 0.167-0.602 0.167c-0.175 0-0.334-0.032-0.478-0.095-0.135-0.058-0.247-0.148-0.328-0.262l-0.002-0.002c-0.071-0.105-0.113-0.235-0.113-0.374 0-0.005 0-0.009 0-0.014v0.001h0.47c0 0.251 0.149 0.377 0.45 0.377 0.112 0 0.199-0.022 0.261-0.067 0.057-0.041 0.094-0.107 0.094-0.182 0-0.003-0-0.007-0-0.010l0 0z"></path>
</symbol>
<symbol id="icon-Logo2" viewBox="0 0 57 32">
<path d="M20.451 27.091c0.017 0 0.032 0.007 0.043 0.018v0l0.109 0.115c-0.085 0.093-0.19 0.167-0.309 0.218-0.139 0.055-0.287 0.082-0.437 0.078-0.007 0-0.014 0-0.022 0-0.14 0-0.274-0.027-0.397-0.076l0.007 0.003c-0.238-0.096-0.421-0.284-0.508-0.52l-0.002-0.006c-0.044-0.117-0.069-0.253-0.069-0.394 0-0.005 0-0.010 0-0.016v0.001c-0-0.005-0-0.011-0-0.017 0-0.142 0.027-0.277 0.077-0.401l-0.003 0.007c0.048-0.118 0.121-0.227 0.213-0.318 0.093-0.091 0.205-0.161 0.329-0.208 0.135-0.050 0.279-0.075 0.423-0.073 0.135-0.003 0.269 0.019 0.394 0.067 0.108 0.045 0.208 0.107 0.295 0.184l-0.092 0.123c-0.006 0.009-0.014 0.016-0.023 0.022l-0 0c-0.009 0.006-0.020 0.010-0.032 0.010-0.002 0-0.003-0-0.005-0h0c-0.015-0.001-0.028-0.006-0.040-0.014l0 0-0.050-0.033-0.069-0.042c-0.063-0.033-0.135-0.059-0.212-0.072l-0.005-0.001c-0.045-0.008-0.097-0.013-0.15-0.013-0.005 0-0.009 0-0.014 0h0.001c-0.003-0-0.007-0-0.011-0-0.106 0-0.206 0.020-0.299 0.056l0.006-0.002c-0.093 0.036-0.173 0.089-0.239 0.155l0-0c-0.068 0.071-0.121 0.155-0.155 0.245-0.039 0.104-0.058 0.214-0.057 0.324-0.002 0.112 0.018 0.224 0.057 0.33 0.034 0.090 0.085 0.173 0.152 0.244 0.063 0.067 0.141 0.118 0.228 0.152 0.090 0.035 0.186 0.053 0.283 0.052 0.056 0.001 0.112-0.003 0.167-0.011 0.091-0.011 0.177-0.041 0.254-0.087 0.038-0.024 0.075-0.051 0.108-0.081 0.014-0.013 0.032-0.021 0.052-0.021h0zM23.62 26.512c0.002 0.139-0.023 0.277-0.074 0.407-0.048 0.123-0.118 0.229-0.206 0.316l-0 0c-0.090 0.088-0.198 0.159-0.318 0.205l-0.006 0.002c-0.124 0.046-0.267 0.073-0.417 0.073s-0.293-0.027-0.426-0.076l0.008 0.003c-0.126-0.049-0.233-0.12-0.323-0.208l0 0c-0.088-0.088-0.159-0.194-0.206-0.312l-0.002-0.006c-0.047-0.121-0.074-0.261-0.074-0.407s0.027-0.286 0.077-0.415l-0.003 0.008c0.046-0.119 0.117-0.228 0.208-0.32 0.090-0.085 0.197-0.153 0.316-0.198l0.007-0.002c0.124-0.047 0.267-0.075 0.417-0.075s0.293 0.027 0.425 0.077l-0.008-0.003c0.122 0.047 0.232 0.117 0.324 0.208 0.091 0.091 0.161 0.197 0.207 0.315 0.051 0.131 0.076 0.269 0.075 0.409zM23.332 26.512c0-0.005 0-0.011 0-0.017 0-0.111-0.019-0.217-0.054-0.316l0.002 0.007c-0.062-0.184-0.199-0.328-0.374-0.397l-0.004-0.002c-0.090-0.034-0.194-0.054-0.303-0.054s-0.213 0.020-0.309 0.056l0.006-0.002c-0.18 0.071-0.318 0.214-0.378 0.394l-0.001 0.005c-0.069 0.213-0.069 0.441 0 0.654 0.062 0.184 0.2 0.327 0.375 0.396l0.004 0.002c0.196 0.069 0.411 0.069 0.606 0 0.089-0.034 0.167-0.086 0.232-0.153 0.066-0.071 0.116-0.155 0.147-0.244 0.037-0.106 0.054-0.216 0.052-0.327zM25.781 26.855l0.029 0.073c0.011-0.026 0.020-0.050 0.031-0.073 0.012-0.029 0.024-0.053 0.038-0.075l-0.002 0.003 0.701-1.214c0.014-0.021 0.026-0.034 0.040-0.038s0.031-0.007 0.047-0.007c0.004 0 0.007 0 0.011 0l-0-0h0.207v1.974h-0.245v-1.513c-0.001-0.010-0.001-0.022-0.001-0.034s0-0.024 0.001-0.036l-0 0.002-0.705 1.231c-0.009 0.019-0.024 0.034-0.041 0.045l-0 0c-0.017 0.010-0.037 0.016-0.059 0.016-0.001 0-0.001 0-0.002 0h-0.039c-0.021 0.001-0.043-0.005-0.060-0.016s-0.032-0.026-0.041-0.044l-0-0.001-0.725-1.239v1.586h-0.237v-1.971h0.207c0.003-0 0.007-0 0.010-0 0.017 0 0.033 0.002 0.049 0.007l-0.001-0c0.017 0.008 0.030 0.021 0.038 0.037l0 0 0.716 1.215c0.013 0.020 0.025 0.043 0.035 0.068l0.001 0.003zM28.42 26.757v0.739h-0.274v-1.971h0.612c0.007-0 0.015-0 0.023-0 0.113 0 0.223 0.016 0.326 0.045l-0.008-0.002c0.089 0.024 0.171 0.066 0.242 0.123 0.061 0.053 0.108 0.12 0.137 0.194 0.032 0.081 0.048 0.166 0.046 0.252 0.002 0.086-0.016 0.172-0.051 0.252-0.035 0.078-0.085 0.144-0.147 0.197l-0.001 0.001c-0.068 0.058-0.149 0.102-0.238 0.129l-0.005 0.001c-0.107 0.033-0.219 0.048-0.331 0.046l-0.332-0.005zM28.42 26.545h0.332c0.073 0.001 0.144-0.009 0.213-0.030 0.059-0.019 0.11-0.048 0.154-0.086l-0.001 0.001c0.040-0.035 0.072-0.079 0.092-0.128l0.001-0.002c0.021-0.048 0.033-0.103 0.033-0.161 0-0.002 0-0.004-0-0.005v0c0-0.006 0.001-0.013 0.001-0.020 0-0.051-0.010-0.099-0.029-0.142l0.001 0.002c-0.023-0.053-0.055-0.098-0.096-0.135l-0-0c-0.090-0.067-0.204-0.108-0.327-0.108-0.015 0-0.029 0.001-0.044 0.002l0.002-0h-0.332v0.813zM32.107 27.499h-0.217c-0.001 0-0.003 0-0.004 0-0.021 0-0.041-0.007-0.057-0.018l0 0c-0.015-0.012-0.027-0.027-0.035-0.045l-0-0.001-0.187-0.477h-0.937l-0.194 0.477c-0.008 0.018-0.019 0.033-0.034 0.044l-0 0c-0.016 0.012-0.036 0.020-0.058 0.020-0.001 0-0.002-0-0.004-0h-0.216l0.823-1.975h0.285l0.834 1.975zM30.749 26.766h0.774l-0.326-0.804c-0.022-0.051-0.043-0.112-0.060-0.176l-0.002-0.010-0.032 0.103c-0.011 0.035-0.021 0.063-0.032 0.090l0.002-0.006-0.324 0.802zM33.292 25.533c0.017 0.009 0.030 0.021 0.042 0.036l1.2 1.488v-1.532h0.245v1.975h-0.137c-0.001 0-0.002 0-0.004 0-0.019 0-0.037-0.004-0.053-0.012l0.001 0c-0.017-0.010-0.032-0.022-0.044-0.037l-0-0-1.199-1.487c0.001 0.022 0.001 0.045 0 0.068v1.468h-0.245v-1.975h0.145c0.017 0 0.034 0.003 0.049 0.009zM36.802 26.714v0.784h-0.275v-0.784l-0.758-1.189h0.245c0.002-0 0.003-0 0.005-0 0.020 0 0.039 0.006 0.054 0.017l-0-0c0.015 0.013 0.027 0.027 0.037 0.044l0 0.001 0.475 0.767c0.032 0.050 0.061 0.108 0.082 0.169l0.002 0.006 0.036-0.085c0.013-0.031 0.029-0.061 0.047-0.090l0.468-0.772c0.010-0.016 0.022-0.030 0.036-0.042l0-0c0.015-0.012 0.034-0.019 0.054-0.019 0.002 0 0.003 0 0.005 0h0.248l-0.76 1.195zM25.646 22.21c0.119 0.014 0.24 0.027 0.362 0.037 1.851-0.789 3.417-2.080 4.502-3.712s1.641-3.533 1.598-5.465l-2.040-1.943c0.135 0.641 0.213 1.377 0.213 2.131 0 1.444-0.284 2.822-0.799 4.080l0.026-0.072c-0.781 1.957-2.118 3.669-3.862 4.944z"></path>
<path d="M24.917 22.12l0.055 0.011c1.863-1.27 3.284-3.044 4.079-5.091 0.449-1.121 0.71-2.42 0.71-3.78 0-0.929-0.122-1.83-0.35-2.687l0.016 0.073-2.905-2.768c0.909 1.717 1.443 3.754 1.443 5.915 0 0.503-0.029 0.999-0.085 1.487l0.006-0.059c-0.284 2.522-1.314 4.914-2.969 6.9zM34.771 15.353c-0.494 2.123-1.692 4.036-3.419 5.458-0.476 0.397-1.008 0.764-1.57 1.082l-0.054 0.028c1.461-0.414 2.726-1.115 3.787-2.043l-0.011 0.010c1.050-0.918 1.881-2.060 2.422-3.353l0.022-0.060-1.179-1.122z"></path>
<path d="M34.309 15.040l-1.678-1.598c-0.038 1.921-0.62 3.699-1.598 5.195l0.023-0.038c-0.999 1.555-2.417 2.826-4.106 3.682h0.009c0.376 0 0.752-0.021 1.126-0.064 1.613-0.633 2.974-1.603 4.049-2.831l0.010-0.012c1.042-1.19 1.8-2.654 2.154-4.27l0.012-0.064zM25.161 6.709l-2.002-1.909c-1.789 0.659-3.328 1.817-4.415 3.323s-1.672 3.289-1.677 5.116c0.007 2.020 0.72 3.979 2.027 5.569s3.133 2.718 5.19 3.208c1.836-2.131 2.91-4.764 3.068-7.516s-0.61-5.481-2.192-7.79zM38.933 14.746c-0.007-2.396-1.009-4.692-2.788-6.386s-4.188-2.649-6.702-2.656c-1.162-0.001-2.314 0.203-3.398 0.603l12.254 11.675c0.401-0.957 0.634-2.068 0.634-3.234 0-0 0-0.001 0-0.001v0z"></path>
</symbol>
<symbol id="icon-Logo1" viewBox="0 0 57 32">
<path d="M26.654 3.699h0.073c0.135 0 0.281 0.013 0.425 0.026 0.636 0.045 1.268 0.14 1.889 0.285v-1.527c-0.64-0.161-1.292-0.265-1.949-0.311-0.22-0.017-0.494-0.031-0.77-0.038l-0.018-0h-0.228c-1.32 0.005-2.635 0.174-3.913 0.505-1.456 0.363-2.853 0.932-4.151 1.689v15.145c1.137-0.632 2.454-1.16 3.84-1.517l0.117-0.026c0.973-0.26 2.109-0.442 3.276-0.508l0.046-0.002h0.045c0.188-0.010 0.375-0.015 0.568-0.016v-1.552c-1.543 0.021-3.027 0.229-4.445 0.602l0.128-0.029c-0.523 0.136-1.027 0.283-1.5 0.445l-0.54 0.183v-11.809l0.23-0.111c1.638-0.796 3.549-1.311 5.568-1.429l0.041-0.002c0.007-0.001 0.016-0.001 0.025-0.001s0.017 0 0.026 0.001l-0.001-0c0.214-0.011 0.43-0.016 0.642-0.016h0.243c0.112 0.003 0.224 0.005 0.336 0.012z"></path>
<path d="M30.459 5.298c-0.004 0-0.009 0-0.014 0-0.793 0-1.57-0.067-2.326-0.195l0.081 0.011c-0.24-0.041-0.476-0.090-0.706-0.142v14.972c0.971 0.24 1.968 0.357 2.969 0.35 1.393-0.006 2.74-0.189 4.024-0.528l-0.111 0.025c1.574-0.4 2.957-0.979 4.226-1.729l-0.074 0.040v-14.875c-1.137 0.631-2.453 1.16-3.838 1.517l-0.118 0.026c-1.344 0.346-2.726 0.523-4.114 0.528zM36.445 5.556l0.54-0.181v11.812l-0.23 0.111c-0.783 0.384-1.701 0.723-2.657 0.969l-0.103 0.022c-1.154 0.299-2.339 0.452-3.531 0.457-0.356 0-0.709-0.015-1.052-0.045l-0.37-0.033v-12.148l0.43 0.029c0.284 0.019 0.616 0.030 0.951 0.030 0.013 0 0.026-0 0.040-0h-0.002c1.595-0.006 3.139-0.215 4.611-0.604l-0.127 0.029c0.503-0.133 1.004-0.282 1.5-0.449zM19.060 24.646c-0.145-0.15-0.348-0.243-0.573-0.243-0.010 0-0.020 0-0.029 0.001l0.001-0c-0.004-0-0.008-0-0.012-0-0.121 0-0.236 0.024-0.34 0.067l0.006-0.002c-0.205 0.082-0.364 0.243-0.442 0.444l-0.002 0.005c-0.043 0.107-0.063 0.22-0.062 0.335v2.023c-0.005 0.142 0.022 0.284 0.079 0.415 0.048 0.104 0.117 0.196 0.203 0.271 0.081 0.068 0.176 0.117 0.277 0.144 0.099 0.027 0.201 0.042 0.302 0.042 0.113 0.001 0.224-0.023 0.326-0.070 0.304-0.135 0.512-0.434 0.512-0.781v-0.226h-0.529v0.18c0 0.003 0 0.007 0 0.011 0 0.061-0.012 0.119-0.033 0.173l0.001-0.003c-0.018 0.045-0.044 0.083-0.077 0.114l-0 0c-0.061 0.047-0.137 0.076-0.221 0.077h-0c-0.009 0.001-0.020 0.002-0.031 0.002-0.089 0-0.168-0.043-0.216-0.11l-0.001-0.001c-0.044-0.071-0.071-0.158-0.071-0.251 0-0.007 0-0.014 0-0.021l-0 0.001v-1.887c-0.003-0.105 0.019-0.208 0.065-0.302 0.049-0.075 0.132-0.124 0.227-0.124 0.011 0 0.022 0.001 0.033 0.002l-0.001-0c0.003-0 0.006-0 0.010-0 0.092 0 0.174 0.045 0.226 0.114l0.001 0.001c0.055 0.071 0.088 0.162 0.088 0.261 0 0.004-0 0.008-0 0.011v-0.001 0.175h0.523v-0.206c0-0.003 0-0.006 0-0.009 0-0.124-0.024-0.243-0.067-0.351l0.002 0.006c-0.041-0.111-0.102-0.205-0.177-0.285l0 0zM22.202 24.624c-0.161-0.137-0.372-0.221-0.602-0.223h-0c-0.108 0-0.214 0.020-0.316 0.057-0.218 0.078-0.39 0.239-0.482 0.443l-0.002 0.005c-0.053 0.123-0.079 0.257-0.077 0.392v1.94c-0.004 0.137 0.022 0.272 0.077 0.397 0.048 0.105 0.118 0.197 0.205 0.271 0.081 0.075 0.176 0.133 0.279 0.171 0.101 0.037 0.208 0.057 0.316 0.057 0.231-0 0.442-0.087 0.603-0.229l-0.001 0.001c0.084-0.076 0.152-0.168 0.199-0.271 0.054-0.125 0.081-0.261 0.077-0.397v-1.941c0-0.005 0-0.012 0-0.018 0-0.135-0.028-0.263-0.079-0.38l0.002 0.006c-0.049-0.111-0.117-0.205-0.199-0.283l-0-0zM21.955 27.239c0.001 0.009 0.001 0.019 0.001 0.030 0 0.099-0.041 0.188-0.107 0.251l-0 0c-0.067 0.056-0.154 0.090-0.249 0.090s-0.182-0.034-0.249-0.091l0.001 0c-0.066-0.063-0.106-0.152-0.106-0.251 0-0.011 0-0.021 0.001-0.032l-0 0.001v-1.941c-0.001-0.009-0.001-0.019-0.001-0.029 0-0.099 0.041-0.188 0.106-0.251l0-0c0.067-0.056 0.154-0.090 0.249-0.090s0.182 0.034 0.249 0.091l-0.001-0c0.066 0.063 0.107 0.152 0.107 0.251 0 0.011-0 0.021-0.001 0.031l0-0.001v1.941zM26.329 28.107v-3.675h-0.508l-0.668 1.945h-0.010l-0.673-1.945h-0.503v3.674h0.525v-2.235h0.010l0.514 1.58h0.261l0.518-1.58h0.009v2.235h0.525zM29.311 24.69c-0.081-0.091-0.183-0.16-0.297-0.201-0.108-0.036-0.232-0.057-0.361-0.057-0.007 0-0.014 0-0.021 0h-0.779v3.675h0.524v-1.435h0.27c0.163 0.007 0.325-0.027 0.472-0.1 0.12-0.068 0.217-0.163 0.286-0.278l0.002-0.003c0.060-0.098 0.101-0.206 0.12-0.32 0.018-0.116 0.028-0.249 0.028-0.385 0-0.012-0-0.023-0-0.035l0 0.002c0.005-0.176-0.012-0.353-0.051-0.525-0.037-0.132-0.104-0.246-0.193-0.338l0 0zM29.041 25.81c-0.002 0.070-0.020 0.136-0.049 0.194l0.001-0.003c-0.030 0.056-0.077 0.101-0.134 0.128l-0.002 0.001c-0.065 0.030-0.14 0.047-0.22 0.047-0.010 0-0.019-0-0.028-0.001l0.001 0h-0.239v-1.249h0.27c0.008-0 0.016-0.001 0.025-0.001 0.077 0 0.149 0.017 0.214 0.048l-0.003-0.001c0.054 0.031 0.096 0.078 0.122 0.134l0.001 0.002c0.029 0.065 0.044 0.134 0.046 0.205v0.244c0 0.085 0.005 0.174 0 0.252h-0.005zM31.79 24.432h-0.429l-0.81 3.675h0.524l0.154-0.789h0.714l0.154 0.789h0.523l-0.83-3.675zM31.308 26.817l0.258-1.332h0.010l0.256 1.332h-0.523zM35.173 26.645h-0.010l-0.791-2.213h-0.503v3.675h0.523v-2.21h0.011l0.8 2.209h0.493v-3.674h-0.523v2.213zM38.372 24.432l-0.421 1.461h-0.011l-0.421-1.461h-0.554l0.719 2.122v1.553h0.524v-1.553l0.719-2.121h-0.555zM17.6 29.144h0.252v0.708h0.171v-0.708h0.251v-0.145h-0.674v0.146zM19.721 28.998l-0.331 0.853h0.182l0.070-0.194h0.34l0.073 0.194h0.187l-0.339-0.853h-0.182zM19.694 29.514l0.116-0.316 0.116 0.316h-0.232zM21.818 29.537h0.197v0.11c-0.055 0.044-0.126 0.072-0.203 0.072h-0c-0.004 0-0.008 0-0.012 0-0.068 0-0.129-0.032-0.169-0.081l-0-0c-0.040-0.057-0.063-0.127-0.063-0.203 0-0.007 0-0.013 0.001-0.020l-0 0.001c0-0.19 0.082-0.285 0.245-0.285 0.006-0.001 0.012-0.001 0.018-0.001 0.084 0 0.155 0.058 0.174 0.136l0 0.001 0.169-0.033c-0.036-0.166-0.156-0.251-0.362-0.251-0.003-0-0.007-0-0.011-0-0.11 0-0.211 0.042-0.287 0.11l0-0c-0.076 0.075-0.124 0.18-0.124 0.296 0 0.011 0 0.022 0.001 0.033l-0-0.001c-0 0.006-0 0.013-0 0.020 0 0.115 0.041 0.22 0.11 0.301l-0.001-0.001c0.075 0.078 0.181 0.126 0.297 0.126 0.009 0 0.018-0 0.027-0.001l-0.001 0c0.004 0 0.009 0 0.014 0 0.134 0 0.257-0.052 0.348-0.137l-0 0v-0.336h-0.37v0.144zM23.958 28.998h-0.172v0.853h0.597v-0.145h-0.425v-0.708zM25.77 28.998h-0.173v0.853h0.173v-0.853zM27.539 29.568l-0.349-0.57h-0.167v0.853h0.161v-0.557l0.343 0.557h0.171v-0.853h-0.158v0.57zM29.14 29.476h0.425v-0.145h-0.425v-0.187h0.457v-0.146h-0.63v0.853h0.647v-0.145h-0.475v-0.231zM33.020 29.335h-0.336v-0.336h-0.171v0.853h0.171v-0.373h0.336v0.373h0.171v-0.853h-0.171v0.337zM34.629 29.476h0.427v-0.145h-0.427v-0.187h0.459v-0.146h-0.629v0.853h0.646v-0.145h-0.475v-0.231zM36.812 29.476c0.149-0.023 0.224-0.102 0.224-0.237 0.001-0.007 0.001-0.016 0.001-0.024 0-0.068-0.033-0.128-0.084-0.165l-0.001-0c-0.063-0.032-0.137-0.051-0.216-0.051-0.012 0-0.023 0-0.035 0.001l0.002-0h-0.362v0.853h0.171v-0.357h0.034c0.004-0 0.009-0 0.014-0 0.034 0 0.066 0.007 0.094 0.020l-0.001-0.001c0.025 0.015 0.046 0.037 0.061 0.062l0.186 0.271h0.205l-0.103-0.166c-0.047-0.083-0.111-0.152-0.187-0.203l-0.002-0.001zM36.64 29.358h-0.127v-0.214h0.135c0.011-0.001 0.023-0.001 0.036-0.001 0.049 0 0.097 0.008 0.141 0.023l-0.003-0.001c0.023 0.020 0.038 0.050 0.038 0.083 0 0.019-0.005 0.037-0.014 0.053l0-0.001c-0.008 0.015-0.019 0.027-0.032 0.037l-0 0c-0.043 0.014-0.092 0.021-0.142 0.021-0.011 0-0.022-0-0.033-0.001l0.001 0zM38.459 29.476h0.425v-0.145h-0.425v-0.187h0.459v-0.146h-0.631v0.853h0.647v-0.145h-0.475v-0.231z"></path>
</symbol>
<symbol id="icon-Logo" viewBox="0 0 57 32">
<path d="M19.733 2.667l3.898 3.69h10.871v10.292l3.898 3.69v-17.671h-18.667z"></path>
<path d="M16.533 6.201v17.166h18.133v-6.823l-10.921-10.339-7.212-0.004zM31.212 20.856h-11.81v-11.545h0.835v10.763h10.975v0.781zM21.755 26.551l0.436-0.899h0.364l-0.635 1.198v0.698h-0.331v-0.698l-0.637-1.197h0.366l0.436 0.899zM23.627 27.107h-0.734l-0.154 0.442h-0.342l0.716-1.896h0.296l0.717 1.896h-0.344l-0.155-0.442zM22.986 26.842h0.549l-0.275-0.787-0.275 0.787zM24.926 27.037c0-0.087 0.024-0.168 0.071-0.241 0.048-0.074 0.142-0.161 0.283-0.262-0.058-0.069-0.109-0.147-0.151-0.23l-0.003-0.007c-0.026-0.055-0.042-0.12-0.043-0.188v-0c0-0.149 0.045-0.266 0.135-0.352s0.212-0.13 0.364-0.13c0.139 0 0.251 0.041 0.339 0.123 0.089 0.081 0.133 0.181 0.133 0.301 0 0.001 0 0.001 0 0.002 0 0.080-0.022 0.155-0.061 0.218l0.001-0.002c-0.053 0.079-0.118 0.145-0.194 0.196l-0.003 0.002-0.129 0.094 0.366 0.432c0.053-0.104 0.080-0.22 0.080-0.347h0.274c0 0.233-0.054 0.425-0.164 0.574l0.278 0.33h-0.367l-0.107-0.126c-0.128 0.095-0.29 0.153-0.465 0.153-0.007 0-0.014-0-0.021-0l0.001 0c-0.187 0-0.338-0.050-0.45-0.149-0.103-0.092-0.168-0.225-0.168-0.373 0-0.006 0-0.012 0-0.017l-0 0.001zM25.554 27.322c0.107 0 0.206-0.036 0.299-0.107l-0.414-0.489-0.041 0.029c-0.104 0.079-0.156 0.169-0.156 0.271 0 0.087 0.028 0.159 0.085 0.213 0.055 0.051 0.13 0.082 0.211 0.082 0.005 0 0.011-0 0.016-0l-0.001 0zM25.379 26.101c0 0.073 0.045 0.164 0.134 0.275l0.144-0.099 0.041-0.033c0.050-0.043 0.081-0.107 0.081-0.177 0-0.002-0-0.005-0-0.007v0c0-0 0-0.001 0-0.002 0-0.049-0.022-0.094-0.056-0.124l-0-0c-0.035-0.033-0.083-0.053-0.135-0.053-0.002 0-0.005 0-0.007 0h0c-0.002-0-0.005-0-0.008-0-0.055 0-0.105 0.024-0.139 0.062l-0 0c-0.034 0.040-0.055 0.092-0.055 0.149 0 0.003 0 0.006 0 0.008v-0zM28.823 26.932c-0.019 0.202-0.094 0.36-0.224 0.474s-0.303 0.17-0.519 0.17c-0.151 0-0.284-0.036-0.4-0.107-0.116-0.075-0.207-0.179-0.264-0.302l-0.002-0.004c-0.062-0.133-0.098-0.289-0.098-0.453 0-0.002 0-0.005 0-0.007v0-0.177c0-0.179 0.032-0.336 0.095-0.473 0.064-0.137 0.155-0.242 0.272-0.315 0.119-0.074 0.256-0.111 0.412-0.111 0.21 0 0.378 0.057 0.506 0.171s0.202 0.274 0.222 0.482h-0.328c-0.016-0.136-0.055-0.234-0.12-0.294-0.063-0.061-0.157-0.091-0.28-0.091-0.143 0-0.253 0.052-0.331 0.157-0.076 0.105-0.115 0.258-0.117 0.46v0.168c0 0.205 0.037 0.361 0.11 0.469s0.181 0.162 0.323 0.162c0.129 0 0.227-0.029 0.292-0.087s0.107-0.155 0.124-0.29h0.328zM30.631 26.65c0 0.186-0.032 0.349-0.096 0.49-0.065 0.14-0.157 0.247-0.276 0.323-0.119 0.075-0.256 0.112-0.412 0.112-0.154 0-0.291-0.037-0.411-0.112-0.122-0.078-0.217-0.188-0.277-0.317l-0.002-0.005c-0.062-0.136-0.099-0.295-0.099-0.463 0-0.006 0-0.013 0-0.019v0.001-0.107c0-0.185 0.032-0.348 0.098-0.49s0.158-0.25 0.277-0.324c0.12-0.076 0.257-0.114 0.411-0.114s0.291 0.037 0.411 0.112c0.119 0.074 0.212 0.181 0.277 0.32s0.098 0.301 0.099 0.486v0.105zM30.302 26.551c0-0.21-0.040-0.371-0.119-0.483-0.071-0.102-0.188-0.168-0.32-0.168-0.006 0-0.012 0-0.018 0l0.001-0c-0.004-0-0.009-0-0.014-0-0.132 0-0.249 0.066-0.32 0.167l-0.001 0.001c-0.080 0.111-0.121 0.269-0.123 0.473v0.109c0 0.208 0.041 0.37 0.122 0.483s0.194 0.171 0.338 0.171c0.146 0 0.258-0.055 0.336-0.167 0.079-0.111 0.118-0.273 0.118-0.487v-0.099z"></path>
</symbol>
</defs>
</svg>
